<svg viewBox="0 0 336 81" fill="none" xmlns="http://www.w3.org/2000/svg"><path fill-rule="evenodd" clip-rule="evenodd" d="M18.888 7.97c-2.547-.577-4.967-1.126-3.34-2.193C18.102 4.1 35.563.137 39.932.137c-.025 0-.05 0-.074.002a8.02 8.02 0 014.618 1.403l10.402 7.12a39.698 39.698 0 0115.572 21.261l8.502 28.1a3.568 3.568 0 01-1.684 4.153l-28.02 15.55a19.18 19.18 0 01-18.614 0l-28.02-15.55a3.568 3.568 0 01-1.684-4.153l8.502-28.1a39.698 39.698 0 0115.572-21.26l10.402-7.121c.188-.129.38-.25.577-.36l-.22.092c-.261.11-1.776.93-3.617 1.927-.58.314-1.304.7-2.096 1.123-2.782 1.485-6.389 3.41-7.39 4.135-1.188 0-2.319-.16-3.773-.49zm43.514 32.236c0 3.864-2.358 3.61-5.714 3.248-1.102-.119-2.311-.25-3.58-.25-.384 0-.762.002-1.134.004-4.598.019-8.16.034-8.16-3.002 0-5.133 4.161-7.906 9.294-7.906 5.133 0 9.294 2.773 9.294 7.906zM27.91 43.208c4.598.019 8.16.034 8.16-3.002 0-5.133-4.161-7.906-9.294-7.906-5.133 0-9.293 2.773-9.293 7.906 0 3.864 2.358 3.61 5.713 3.248 1.102-.119 2.311-.25 3.58-.25.384 0 .762.002 1.134.004z" fill="#fff"/><path d="M114.737 56.788V23.712h13.049c2.509 0 4.646.479 6.411 1.437 1.766.948 3.112 2.267 4.038 3.957.937 1.68 1.405 3.617 1.405 5.814 0 2.196-.474 4.134-1.421 5.814-.948 1.68-2.32 2.987-4.118 3.924-1.788.937-3.952 1.405-6.493 1.405h-8.317V40.46h7.187c1.346 0 2.455-.231 3.327-.694.883-.474 1.539-1.125 1.97-1.954.441-.84.662-1.804.662-2.891 0-1.098-.221-2.057-.662-2.875-.431-.829-1.087-1.47-1.97-1.922-.883-.463-2.003-.694-3.359-.694h-4.716v27.358h-6.993zM150.933 42.447v14.34h-6.88V23.714h6.686v12.645h.291c.559-1.464 1.464-2.61 2.713-3.44 1.249-.84 2.815-1.26 4.699-1.26 1.723 0 3.225.377 4.506 1.131 1.292.743 2.293 1.814 3.004 3.214.721 1.389 1.076 3.052 1.066 4.99v15.794h-6.88V42.221c.011-1.53-.377-2.72-1.163-3.57-.775-.85-1.862-1.275-3.262-1.275-.937 0-1.766.199-2.487.597-.711.398-1.271.98-1.68 1.744-.398.754-.603 1.664-.613 2.73zM179.505 57.256c-1.582 0-2.993-.275-4.231-.824-1.238-.56-2.218-1.383-2.939-2.47-.711-1.099-1.066-2.466-1.066-4.103 0-1.378.253-2.535.759-3.472a6.146 6.146 0 012.067-2.26c.872-.572 1.863-1.002 2.972-1.293 1.12-.29 2.293-.495 3.521-.614a89.41 89.41 0 003.488-.42c.883-.14 1.523-.344 1.922-.613.398-.27.597-.668.597-1.195v-.097c0-1.023-.323-1.814-.969-2.374-.635-.56-1.539-.84-2.713-.84-1.238 0-2.223.275-2.955.824-.732.538-1.217 1.216-1.454 2.035l-6.363-.517c.323-1.508.958-2.81 1.906-3.908.947-1.11 2.169-1.96 3.666-2.552 1.507-.603 3.251-.904 5.232-.904 1.378 0 2.697.161 3.957.484 1.271.323 2.396.824 3.375 1.502a7.299 7.299 0 012.342 2.616c.571 1.055.856 2.32.856 3.795v16.732h-6.524v-3.44h-.194a7.02 7.02 0 01-1.599 2.05c-.668.582-1.47 1.04-2.406 1.373-.937.323-2.019.485-3.247.485zm1.971-4.748c1.012 0 1.905-.2 2.681-.598.775-.409 1.383-.958 1.825-1.647.441-.689.662-1.47.662-2.342V45.29c-.216.14-.512.27-.889.387-.366.108-.78.21-1.243.307-.463.087-.926.167-1.389.243-.463.064-.883.123-1.26.177-.807.119-1.512.307-2.115.566-.603.258-1.072.608-1.405 1.05-.334.43-.501.968-.501 1.614 0 .937.339 1.653 1.018 2.148.689.485 1.561.727 2.616.727zM205.692 42.447v14.34h-6.88V31.983h6.557v4.376h.291a6.92 6.92 0 012.762-3.424c1.292-.85 2.858-1.275 4.699-1.275 1.723 0 3.225.376 4.506 1.13 1.281.754 2.277 1.83 2.988 3.23.71 1.389 1.065 3.047 1.065 4.974v15.794h-6.879V42.221c.01-1.519-.377-2.703-1.163-3.553-.786-.862-1.868-1.292-3.246-1.292-.926 0-1.744.199-2.455.597-.7.398-1.249.98-1.647 1.744-.388.754-.587 1.664-.598 2.73zM240.297 31.982v5.168h-14.938v-5.168h14.938zm-11.547-5.944h6.88v23.127c0 .635.097 1.13.29 1.486.194.344.463.586.808.726.355.14.764.21 1.227.21.323 0 .646-.027.969-.08.323-.065.571-.113.743-.146l1.082 5.12c-.344.107-.829.231-1.453.371-.625.15-1.384.242-2.277.275-1.658.064-3.112-.157-4.361-.663-1.238-.505-2.201-1.291-2.891-2.357-.689-1.066-1.028-2.412-1.017-4.038V26.04zM251.852 57.256c-1.582 0-2.993-.275-4.231-.824-1.238-.56-2.218-1.383-2.939-2.47-.711-1.099-1.066-2.466-1.066-4.103 0-1.378.253-2.535.759-3.472a6.146 6.146 0 012.067-2.26c.872-.572 1.863-1.002 2.972-1.293a22.631 22.631 0 013.52-.614c1.443-.15 2.606-.29 3.489-.42.882-.14 1.523-.344 1.921-.613.399-.27.598-.668.598-1.195v-.097c0-1.023-.323-1.814-.969-2.374-.635-.56-1.54-.84-2.713-.84-1.238 0-2.223.275-2.956.824-.732.538-1.216 1.216-1.453 2.035l-6.363-.517c.323-1.508.958-2.81 1.906-3.908.947-1.11 2.169-1.96 3.666-2.552 1.507-.603 3.251-.904 5.232-.904 1.378 0 2.697.161 3.957.484 1.27.323 2.395.824 3.375 1.502a7.299 7.299 0 012.342 2.616c.57 1.055.856 2.32.856 3.795v16.732h-6.525v-3.44h-.194a7 7 0 01-1.598 2.05c-.668.582-1.47 1.04-2.407 1.373-.936.323-2.018.485-3.246.485zm1.97-4.748c1.013 0 1.906-.2 2.681-.598.776-.409 1.384-.958 1.825-1.647.442-.689.662-1.47.662-2.342V45.29c-.215.14-.511.27-.888.387-.366.108-.78.21-1.243.307-.463.087-.926.167-1.389.243-.463.064-.883.123-1.26.177-.807.119-1.513.307-2.116.566-.602.258-1.071.608-1.405 1.05-.333.43-.5.968-.5 1.614 0 .937.339 1.653 1.017 2.148.689.485 1.561.727 2.616.727zM291.799 39.055l-6.299.388a3.262 3.262 0 00-.694-1.454c-.356-.441-.824-.791-1.405-1.05-.571-.269-1.255-.403-2.051-.403-1.066 0-1.965.226-2.697.678-.732.442-1.099 1.034-1.099 1.776 0 .593.237 1.093.711 1.502.474.41 1.287.738 2.439.986l4.489.904c2.412.495 4.21 1.292 5.394 2.39 1.185 1.098 1.777 2.541 1.777 4.328 0 1.626-.479 3.053-1.438 4.28-.947 1.227-2.25 2.185-3.908 2.875-1.647.678-3.547 1.017-5.701 1.017-3.283 0-5.9-.684-7.848-2.051-1.938-1.378-3.074-3.252-3.408-5.62l6.767-.355c.204 1 .7 1.765 1.486 2.293.785.517 1.792.775 3.02.775 1.205 0 2.174-.231 2.906-.694.743-.474 1.12-1.082 1.131-1.825-.011-.625-.275-1.136-.791-1.535-.517-.409-1.314-.72-2.391-.936l-4.295-.856c-2.423-.485-4.226-1.324-5.411-2.52-1.173-1.195-1.76-2.718-1.76-4.57 0-1.593.431-2.966 1.292-4.118.872-1.152 2.094-2.04 3.666-2.665 1.583-.624 3.435-.936 5.556-.936 3.133 0 5.598.662 7.396 1.986 1.809 1.324 2.864 3.128 3.166 5.41zM296.696 56.788V31.982h6.557v4.376h.29c.517-1.453 1.379-2.6 2.584-3.44 1.206-.84 2.649-1.26 4.329-1.26 1.701 0 3.149.426 4.344 1.276 1.195.84 1.992 1.981 2.39 3.424h.258c.506-1.421 1.422-2.557 2.746-3.407 1.335-.862 2.912-1.292 4.732-1.292 2.314 0 4.193.737 5.636 2.212 1.453 1.464 2.18 3.542 2.18 6.234v16.683h-6.864V41.46c0-1.378-.366-2.411-1.098-3.1-.732-.69-1.647-1.034-2.745-1.034-1.249 0-2.223.398-2.923 1.195-.7.786-1.05 1.825-1.05 3.117v15.148h-6.67v-15.47c0-1.218-.35-2.187-1.05-2.908-.689-.721-1.598-1.082-2.729-1.082-.764 0-1.453.194-2.067.581-.603.377-1.082.91-1.437 1.6-.356.678-.533 1.474-.533 2.39v14.89h-6.88z" fill="#fff"/></svg>